<?xml version="1.0" encoding="utf-8"?>
<!-- Generator: Adobe Illustrator 24.0.1, SVG Export Plug-In . SVG Version: 6.00 Build 0)  -->
<svg version="1.1"
	 id="svg2" xmlns:cc="http://creativecommons.org/ns#" xmlns:dc="http://purl.org/dc/elements/1.1/" xmlns:rdf="http://www.w3.org/1999/02/22-rdf-syntax-ns#" xmlns:svg="http://www.w3.org/2000/svg"
	 xmlns="http://www.w3.org/2000/svg" xmlns:xlink="http://www.w3.org/1999/xlink" x="0px" y="0px" viewBox="0 0 241 87"
	 style="enable-background:new 0 0 241 87;" xml:space="preserve">
<style type="text/css">
	.st0{fill:#231F20;}
</style>
<g id="g10" transform="matrix(1.3333333,0,0,-1.3333333,0,153.26667)">
	<g id="g12" transform="scale(0.1)">
		<path id="path14" class="st0" d="M146.6,953.5L85.4,785.5H61.3L0,953.5h25.2l48-143.2h0.5l47.5,143.2H146.6"/>
		<path id="path16" class="st0" d="M190.1,785.5h-22.7v167.9h22.7V785.5"/>
		<path id="path18" class="st0" d="M357.5,953.5l-61.3-167.9h-24.1l-61.3,167.9h25.2l48-143.2h0.5L332,953.5H357.5"/>
		<path id="path20" class="st0" d="M400.9,785.5h-22.7v167.9h22.7V785.5"/>
		<path id="path22" class="st0" d="M562,785.5H438v167.9h122.3v-20.1h-99.6v-51.4h91.9v-20.2h-91.9v-56.1H562V785.5"/>
		<path id="path24" class="st0" d="M719.9,785.5h-25.5L609,921.2h-0.5V785.5h-22v167.9h26.9l84-135.7h0.5v135.7h22V785.5"/>
		<path id="path26" class="st0" d="M887.5,785.5H862l-85.4,135.7h-0.5V785.5h-22v167.9H781l84-135.7h0.5v135.7h22L887.5,785.5"/>
		<path id="path28" class="st0" d="M1046.9,785.5h-124v167.9h122.3v-20.1h-99.6v-51.4h91.9v-20.2h-91.9v-56.1h101.2V785.5"/>
		<path id="path30" class="st0" d="M1320.8,831.8c0-12.4-3.3-22.3-9.8-29.9c-6.6-7.6-14.8-12.9-24.8-16.1
			c-9.9-3.2-20.3-4.7-31.1-4.7c-13.7,0-24.3,1.5-31.7,4.5c-7.4,3-13.7,6.9-19.1,11.6c-6.7,6-11.2,12.4-13.5,19.1
			c-2.4,6.7-3.5,14.6-3.5,23.4h21.2c0-9.5,2.2-17.2,6.7-23c4.5-5.9,10.2-10.1,17.2-12.5c7-2.5,14.4-3.7,22.4-3.7
			c11.2,0,21.3,2.1,30.4,6.2c9.1,4.1,13.6,11.5,13.6,22.2c0,5.9-1.1,10.6-3.2,14.1c-2.1,3.5-5.7,6.4-10.6,8.7
			c-5,2.3-12.3,4.6-21.9,6.9l-34.4,7.9c-23.9,5.6-35.8,18.7-35.8,39.5c0,9.2,2.1,17.7,6.2,25.6c4.1,7.9,10.6,14.3,19.3,19.1
			c8.7,4.8,19.5,7.3,32.3,7.3c17.9,0,31.6-2.9,41.2-8.8c9.6-5.8,15.9-12.6,19-20.3c3.1-7.7,4.8-15.9,5.3-24.5h-21.3
			c-0.4,8.1-2.6,14.7-6.7,19.8c-4.1,5.1-9.2,8.8-15.4,11c-6.2,2.2-12.7,3.3-19.6,3.3c-5.9,0-11.7-0.8-17.5-2.3
			c-5.7-1.5-10.7-4.5-14.8-8.9c-4.1-4.4-6.1-10.5-6.1-18.3c0-6.5,1.8-11.3,5.4-14.4s8.4-5.4,14.5-6.9l48-11
			C1308.1,870.7,1320.8,855.7,1320.8,831.8"/>
		<path id="path32" class="st0" d="M1430.1,854.5l-24.8,73.9h-0.5l-26.9-73.9H1430.1z M1479.7,785.5h-24.8l-16.6,48.9h-67.4
			l-17.5-48.9H1330l63.2,167.9h25.8L1479.7,785.5"/>
		<path id="path34" class="st0" d="M1604.6,835.6c0,18.8-13.1,28.3-39.3,28.3h-44.7v-58.9h48.4c11.6,0,20.4,2.7,26.5,8.2
			C1601.6,818.6,1604.6,826.1,1604.6,835.6L1604.6,835.6z M1596.7,909.5c0,8.1-2.8,14.2-8.3,18.4c-5.5,4.1-14.4,6.2-26.6,6.2h-41.2
			v-51.7h40.9c11.5,0,20.2,2.1,26.2,6.2C1593.7,892.7,1596.7,899.6,1596.7,909.5z M1627.3,835.1c0-9.1-2.2-17.5-6.6-25
			c-4.4-7.5-10.9-13.5-19.6-17.9c-8.7-4.4-19-6.6-30.8-6.6H1498v167.9h73.9c10.1,0,18.7-1.9,25.9-5.7c7.2-3.8,12.6-8.9,16.2-15.3
			c3.6-6.4,5.4-13.5,5.4-21.4c0-16.4-7.5-28.1-22.4-35.1c8.8-3.6,16.1-8.2,21.8-13.8C1624.4,856.7,1627.3,847.6,1627.3,835.1"/>
		<path id="path36" class="st0" d="M1784.1,869.5c0,13.2-2.4,25-7.1,35.3c-4.7,10.3-11.5,18.4-20.3,24.2c-8.9,5.8-19.2,8.7-31.1,8.7
			c-11.9,0-22.2-2.9-31.1-8.7c-8.9-5.8-15.6-13.9-20.3-24.2c-4.7-10.3-7.1-22.1-7.1-35.3c0-13.2,2.4-25,7.1-35.3
			c4.7-10.4,11.5-18.4,20.4-24.2c8.9-5.8,19.2-8.7,31-8.7c11.8,0,22.1,2.9,31,8.7c8.9,5.8,15.7,13.9,20.4,24.2
			C1781.7,844.5,1784.1,856.3,1784.1,869.5L1784.1,869.5z M1807.5,869.5c0-9.9-1.4-19.9-4.2-30.1c-2.8-10.2-7.4-19.7-13.8-28.5
			c-6.4-8.8-14.9-16-25.5-21.5c-10.6-5.5-23.4-8.3-38.3-8.3c-14.9,0-27.6,2.7-38.3,8.3c-10.6,5.5-19.1,12.7-25.6,21.6
			c-6.4,8.9-11,18.4-13.8,28.6c-2.8,10.1-4.2,20.1-4.2,30c0,9.9,1.4,19.9,4.2,30c2.8,10.1,7.4,19.7,13.8,28.6
			c6.4,8.9,14.9,16.1,25.6,21.6c10.7,5.5,23.4,8.2,38.2,8.2c14.8,0,27.6-2.7,38.3-8.2c10.7-5.5,19.2-12.6,25.6-21.5
			c6.4-8.9,10.9-18.4,13.8-28.6C1806.1,889.4,1807.5,879.4,1807.5,869.5"/>
		<path id="path38" class="st0" d="M669.6,676.6c0,7.3-4.3,11-13,11h-18v-22.8h17.7C665.1,664.8,669.6,668.8,669.6,676.6
			L669.6,676.6z M678.7,676.8c0-3.3-0.7-6.4-2-9.4c-1.3-3-3.5-5.4-6.4-7.3c-2.9-1.9-6.6-2.8-11.1-2.8h-20.7v-27.7h-8.9v65.7h29.6
			c3.9,0,7.4-0.8,10.4-2.4c3-1.6,5.2-3.8,6.8-6.6C677.9,683.5,678.7,680.3,678.7,676.8"/>
		<path id="path40" class="st0" d="M790.4,656.5l-9.7,28.9h-0.2L770,656.5H790.4z M809.9,629.5h-9.7l-6.5,19.1h-26.4l-6.9-19.1h-9.2
			l24.7,65.7h10.1L809.9,629.5"/>
		<path id="path42" class="st0" d="M934.8,676.6c0,7.3-3.9,11-11.8,11h-22.1v-22.3h20.6c4,0,7.2,0.8,9.7,2.4
			C933.6,669.3,934.8,672.2,934.8,676.6z M946.5,629.5h-10.9c-0.4,1.2-0.7,2.9-0.9,5.1c-0.2,2.1-0.4,4.3-0.5,6.3
			c-0.1,2.1-0.1,3.8-0.1,5.1c0,3.5-0.8,6.3-2.3,8.5c-1.5,2.2-4.7,3.2-9.4,3.2h-21.5v-28.2h-8.9v65.7h30.4c6.3,0,11.4-1.3,15.5-4
			c4.1-2.7,6.1-7.2,6.1-13.6c0-4.3-0.8-7.6-2.5-9.9c-1.7-2.3-3.9-4.2-6.7-5.8c2.5-1,4.4-2.3,5.7-3.9c1.3-1.6,2-4.4,2.2-8.5l0.5-11.9
			c0-1.9,0.3-3.3,0.7-4.1c0.4-0.9,1.3-1.7,2.6-2.4L946.5,629.5"/>
		<path id="path44" class="st0" d="M1040.2,629.5h-8.9v65.7h8.9V629.5"/>
		<path id="path46" class="st0" d="M1177.9,647.6c0-4.8-1.3-8.7-3.9-11.7c-2.6-3-5.8-5.1-9.7-6.3c-3.9-1.2-7.9-1.9-12.2-1.9
			c-5.4,0-9.5,0.6-12.4,1.8c-2.9,1.2-5.4,2.7-7.5,4.6c-2.6,2.4-4.4,4.8-5.3,7.5c-0.9,2.6-1.4,5.7-1.4,9.2h8.3c0-3.7,0.9-6.7,2.6-9
			c1.8-2.3,4-3.9,6.7-4.9c2.7-1,5.7-1.4,8.8-1.4c4.4,0,8.3,0.8,11.9,2.4c3.6,1.6,5.3,4.5,5.3,8.7c0,2.3-0.4,4.1-1.2,5.5
			c-0.8,1.4-2.2,2.5-4.2,3.4c-2,0.9-4.8,1.8-8.6,2.7l-13.5,3.1c-9.3,2.2-14,7.3-14,15.5c0,3.6,0.8,6.9,2.4,10
			c1.6,3.1,4.1,5.6,7.5,7.5c3.4,1.9,7.6,2.8,12.6,2.8c7,0,12.4-1.1,16.1-3.4c3.7-2.3,6.2-4.9,7.4-8c1.2-3,1.9-6.2,2.1-9.6h-8.3
			c-0.2,3.2-1,5.8-2.6,7.8c-1.6,2-3.6,3.4-6,4.3c-2.4,0.9-5,1.3-7.7,1.3c-2.3,0-4.6-0.3-6.8-0.9c-2.3-0.6-4.2-1.8-5.8-3.5
			c-1.6-1.7-2.4-4.1-2.4-7.2c0-2.5,0.7-4.4,2.1-5.6c1.4-1.2,3.3-2.1,5.7-2.7l18.8-4.3C1172.9,662.8,1177.9,657,1177.9,647.6"/>
		<path id="path48" class="st0" d="M1766.3,1018.7l-30.4-32.9h-15.6l20.8,32.9H1766.3"/>
	</g>
</g>
</svg>
